<svg width="146" height="51" viewBox="0 0 146 51" fill="none" xmlns="http://www.w3.org/2000/svg">
<path d="M22.1977 9.19335C22.1562 9.19854 22.1199 9.2089 22.0784 9.21409L22.1977 9.19335ZM29.1734 14.1396C23.2174 12.0087 16.6051 14.9899 14.2789 20.9212C14.0764 21.4345 13.9153 21.9582 13.7906 22.4766L9.15033 22.4144C9.3376 21.3619 9.62856 20.3094 10.0336 19.2725C10.5684 17.9141 11.2587 16.6646 12.0889 15.5447C12.9451 14.3833 13.9411 13.3567 15.0408 12.4753L10.6021 4.67745C12.3294 3.29831 13.1125 2.99759 15.1246 2.11619C17.1368 1.23478 19.2629 0.617799 21.4459 0.285975C23.5978 -0.0406629 25.8117 -0.0925102 28.0254 0.156357C30.1666 0.394855 32.3127 0.918513 34.4121 1.74289C36.5114 2.56726 38.4395 3.6405 40.1756 4.91594C41.9688 6.23805 43.5596 7.77792 44.917 9.47851C45.0932 9.70146 45.2693 9.92958 45.4454 10.1681H39.5193C38.8975 9.57702 38.2341 9.01707 37.5293 8.4986C36.099 7.4461 34.5129 6.56469 32.7816 5.88549C31.0555 5.21147 29.293 4.78114 27.5303 4.58412C25.7054 4.37673 23.8855 4.42339 22.1122 4.693C20.3129 4.96779 18.3631 5.56404 16.7087 6.2899L18.9774 10.1577C19.7708 9.81033 20.4865 9.57184 21.2436 9.39037C24.4274 8.58674 27.8856 8.73191 31.172 10.0177C31.2964 10.0644 31.4208 10.1162 31.54 10.1681L29.1734 14.1396ZM45.599 40.0425C45.5679 40.084 45.5367 40.1307 45.5056 40.1721C44.224 41.9038 42.6987 43.5007 40.9351 44.911C39.1714 46.3212 37.2784 47.4515 35.3025 48.3174C33.2592 49.2143 31.1331 49.8209 28.976 50.1424C26.7931 50.4742 24.2111 50.469 22.0284 50.2253C20.9812 50.0905 19.9444 49.8935 18.9231 49.6343L21.2949 45.6006C21.8548 45.7094 22.4147 45.7924 22.9798 45.8494C24.7736 46.0516 26.5105 46.0102 28.3098 45.7354C30.0831 45.4658 31.8358 44.968 33.5161 44.2318C35.1394 43.5215 36.7005 42.5882 38.1529 41.4268C38.708 40.9861 39.2319 40.5195 39.7247 40.0373H45.599V40.0425ZM9.31251 28.7865C9.22458 28.4287 9.15221 28.0554 9.09023 27.6614C9.05407 27.4332 9.02309 27.1999 9.00249 26.9666L13.6117 27.0288C14.2419 31.0107 16.9047 34.5623 20.9272 36.1384C23.887 37.2946 27.029 37.1702 29.7413 36.0347L31.9839 40.0425C31.9009 40.0788 31.8179 40.1203 31.7298 40.1566C30.454 40.7165 29.085 41.1158 27.6383 41.3335C26.1969 41.5513 24.7659 41.5772 23.3816 41.4217C21.9507 41.2609 20.5614 40.9136 19.25 40.4003L14.714 48.1515C12.6561 47.3426 12.0032 46.819 10.2411 45.5176C8.4739 44.2162 6.8779 42.6867 5.49978 40.9602C4.13719 39.2596 2.99247 37.3724 2.1019 35.3244C1.24239 33.349 0.621461 31.2337 0.285764 28.999C-0.0499364 26.7696 -0.0849348 24.5609 0.154818 22.4196C0.399799 20.2057 0.94027 18.0592 1.73991 16.032C2.54993 13.9737 3.84224 11.7442 5.14464 9.97625C5.78286 9.13632 6.4729 8.33787 7.20957 7.5809L9.51439 11.6509C9.14084 12.0812 8.78802 12.5271 8.45074 12.9886C7.37664 14.4455 6.54619 15.9646 5.88155 17.66C5.2273 19.3295 4.78038 21.0975 4.5771 22.9225C4.37905 24.6853 4.40909 26.5052 4.6828 28.3406C4.9617 30.176 5.46878 31.9232 6.17814 33.5461C6.91339 35.2259 7.8561 36.7813 8.98036 38.1864C10.115 39.607 11.6073 40.9965 13.0636 42.0646L15.285 38.1657C14.1448 37.3257 13.3572 36.5221 12.4661 35.4074L15.9467 32.6284L12.4765 35.3815C10.9274 33.4372 9.83996 31.1611 9.29698 28.7398L9.31251 28.7865ZM9.3901 29.0872C9.37975 29.0509 9.36941 29.0146 9.35906 28.9731C9.36941 29.0094 9.37975 29.0509 9.3901 29.0872ZM9.6385 29.896C9.62815 29.8597 9.61261 29.8234 9.60226 29.7923C9.61261 29.8286 9.62296 29.8597 9.6385 29.896Z" fill="#0E50F2"/>
<path d="M48.229 18.853L46.771 21.283C45.457 20.311 44.287 19.825 43.261 19.825C41.929 19.825 40.876 20.347 40.102 21.391C39.328 22.435 38.941 23.848 38.941 25.63C38.941 27.034 39.328 28.258 40.102 29.302C40.948 30.436 42.1 31.003 43.558 31.003C44.494 31.003 45.637 30.58 46.987 29.734L48.445 32.002C46.951 33.55 45.169 34.324 43.099 34.324C40.129 34.324 37.924 33.226 36.484 31.03C35.494 29.5 34.999 27.7 34.999 25.63C34.999 22.858 35.701 20.662 37.105 19.042C38.509 17.404 40.489 16.585 43.045 16.585C44.737 16.585 46.465 17.341 48.229 18.853ZM54.8518 16.585V34H51.1798V18.502C51.8998 18.16 52.9708 17.602 54.3928 16.828L54.6628 16.693L54.8518 16.585ZM63.6443 21.418C65.6783 21.418 67.2623 22.129 68.3963 23.551C69.3323 24.721 69.8003 26.17 69.8003 27.898C69.8003 29.896 69.0893 31.525 67.6673 32.785C66.5153 33.811 65.1743 34.324 63.6443 34.324C61.8803 34.324 60.3953 33.658 59.1893 32.326C58.0733 31.12 57.5153 29.644 57.5153 27.898C57.5153 25.9 58.1183 24.298 59.3243 23.092C60.4403 21.976 61.8803 21.418 63.6443 21.418ZM61.2683 27.898C61.2683 30.364 62.0693 31.597 63.6713 31.597C65.2553 31.597 66.0473 30.364 66.0473 27.898C66.0473 25.306 65.2463 24.01 63.6443 24.01C62.0603 24.01 61.2683 25.306 61.2683 27.898ZM80.4495 32.596C79.6035 33.748 78.3795 34.324 76.7775 34.324C75.1935 34.324 74.0775 33.937 73.4295 33.163C72.7995 32.371 72.4845 31.012 72.4845 29.086V21.742H76.1025V28.087C76.1025 29.311 76.2465 30.157 76.5345 30.625C76.8225 31.075 77.3535 31.3 78.1275 31.3C78.4155 31.3 78.7575 31.228 79.1535 31.084C79.5495 30.922 79.7745 30.76 79.8285 30.598V21.742H83.5005V34H80.7735L80.4495 32.596ZM95.0054 22.363V18.664L98.6774 16.639V34H95.7344L95.1944 32.704C94.9244 33.172 94.4654 33.559 93.8174 33.865C93.1874 34.171 92.5394 34.324 91.8734 34.324C89.9114 34.324 88.4264 33.685 87.4184 32.407C86.5904 31.363 86.1764 30.013 86.1764 28.357C86.1764 25.945 86.8694 24.109 88.2554 22.849C89.2814 21.895 90.5054 21.418 91.9274 21.418C93.1514 21.418 94.1774 21.733 95.0054 22.363ZM95.0054 26.062C94.8794 25.45 94.6094 24.955 94.1954 24.577C93.7814 24.199 93.2954 24.01 92.7374 24.01C91.8554 24.01 91.1624 24.352 90.6584 25.036C90.1724 25.72 89.9294 26.656 89.9294 27.844C89.9294 30.418 90.7214 31.705 92.3054 31.705C92.9354 31.705 93.5294 31.444 94.0874 30.922C94.6454 30.382 94.9514 29.779 95.0054 29.113V26.062Z" fill="#020842"/>
<path d="M102.755 18.61L106.427 16.585V23.227C106.679 22.669 107.264 22.183 108.182 21.769C108.776 21.517 109.316 21.391 109.802 21.391C111.368 21.391 112.502 21.814 113.204 22.66C113.924 23.506 114.284 24.892 114.284 26.818V34H110.612V26.953C110.612 25.315 109.919 24.496 108.533 24.496C107.471 24.496 106.769 24.766 106.427 25.306V34H102.755V18.61ZM125.591 32.596C124.745 33.748 123.521 34.324 121.919 34.324C120.335 34.324 119.219 33.937 118.571 33.163C117.941 32.371 117.626 31.012 117.626 29.086V21.742H121.244V28.087C121.244 29.311 121.388 30.157 121.676 30.625C121.964 31.075 122.495 31.3 123.269 31.3C123.557 31.3 123.899 31.228 124.295 31.084C124.691 30.922 124.916 30.76 124.97 30.598V21.742H128.642V34H125.915L125.591 32.596ZM132.128 34V18.664L135.8 16.585V23.146C136.178 22.534 136.727 22.066 137.447 21.742C137.969 21.508 138.536 21.391 139.148 21.391C140.966 21.391 142.379 21.994 143.387 23.2C144.305 24.316 144.764 25.792 144.764 27.628C144.764 30.004 144.089 31.786 142.739 32.974C141.713 33.874 140.426 34.324 138.878 34.324C137.402 34.324 136.241 33.811 135.395 32.785L135.125 34H132.128ZM135.8 29.383C135.854 30.067 136.115 30.643 136.583 31.111C137.051 31.561 137.618 31.786 138.284 31.786C139.094 31.786 139.724 31.444 140.174 30.76C140.642 30.076 140.876 29.122 140.876 27.898C140.876 26.692 140.651 25.747 140.201 25.063C139.769 24.379 139.184 24.037 138.446 24.037C136.682 24.037 135.8 25 135.8 26.926V29.383Z" fill="#0E50F2"/>
<path d="M25 8C27.5417 8 29.9527 8.55872 32.1182 9.55859L29.1494 14.8115C27.8688 14.2894 26.4683 14 25 14C19.7851 14 15.4213 17.6297 14.2891 22.5H8.18359C9.39269 14.2965 16.4605 8 25 8Z" fill="#FB7929"/>
<path d="M10.7727 33.7205C9.42583 31.5649 8.65185 29.2056 8.40524 26.8062L14.4117 26.3879C14.5908 27.8589 15.0712 29.2769 15.861 30.541C18.502 34.7674 24.1838 36.6667 29.526 34.661L32.749 39.8189C24.7172 43.4122 15.298 40.9625 10.7727 33.7205Z" fill="#F44380"/>
</svg>
